<svg width="32" height="32" viewBox="0 0 32 32" fill="none" xmlns="http://www.w3.org/2000/svg">
<path fill-rule="evenodd" clip-rule="evenodd" d="M32.0001 10.1368C32.0001 4.53836 27.4617 0 21.8633 0V10.1368C21.8633 15.7352 26.4016 20.2736 32.0001 20.2736V10.1368Z" fill="#E31E24"/>
<path fill-rule="evenodd" clip-rule="evenodd" d="M10.1368 10.1368C15.7352 10.1368 20.2736 5.59842 20.2736 0H10.1368C4.53836 0 0 4.53836 0 10.1368H10.1368Z" fill="#E31E24"/>
<path fill-rule="evenodd" clip-rule="evenodd" d="M10.1368 21.8633C10.1368 16.2649 5.59842 11.7266 0 11.7266V21.8633C0 27.4618 4.53836 32.0001 10.1368 32.0001V21.8633Z" fill="#E31E24"/>
<path fill-rule="evenodd" clip-rule="evenodd" d="M21.8629 32.0001C27.4613 32.0001 31.9996 27.4617 31.9996 21.8633H21.8629C16.2644 21.8633 11.7261 26.4016 11.7261 32.0001H21.8629Z" fill="#E31E24"/>
<path fill-rule="evenodd" clip-rule="evenodd" d="M0 21.8633H10.1368V32.0001H0V21.8633Z" fill="#E31E24"/>
</svg>
