<svg width="40" height="41" viewBox="0 0 40 41" fill="none" xmlns="http://www.w3.org/2000/svg">
<g style="mix-blend-mode:multiply">
<g filter="url(#filter0_d_872_2272)">
<rect x="8.68628" y="0.404297" width="32" height="32" rx="8" transform="rotate(15 8.68628 0.404297)" fill="url(#paint0_linear_872_2272)"/>
</g>
<g filter="url(#filter1_b_872_2272)">
<rect y="8" width="32" height="32" rx="6" fill="white" fill-opacity="0.6"/>
<path d="M19.9187 29.3933C18.7797 30.2208 17.408 30.6665 16.0001 30.6665C14.5922 30.6665 13.2205 30.2208 12.0815 29.3933M18.9226 18.0079C20.188 18.625 21.2255 19.627 21.8864 20.87C22.5474 22.1131 22.7978 23.5335 22.6019 24.9277M9.39838 24.9276C9.20245 23.5334 9.4529 22.113 10.1139 20.87C10.7748 19.6269 11.8123 18.625 13.0777 18.0078M19.6668 23.9998C19.6668 26.0249 18.0251 27.6665 16.0001 27.6665C13.9751 27.6665 12.3334 26.0249 12.3334 23.9998C12.3334 21.9748 13.9751 20.3332 16.0001 20.3332C18.0251 20.3332 19.6668 21.9748 19.6668 23.9998Z" stroke="white" stroke-linecap="round" stroke-linejoin="round"/>
<rect x="0.375" y="8.375" width="31.25" height="31.25" rx="5.625" stroke="white" stroke-opacity="0.6" stroke-width="0.75"/>
</g>
</g>
<defs>
<filter id="filter0_d_872_2272" x="-1.59595" y="-0.595703" width="43.1919" height="43.1914" filterUnits="userSpaceOnUse" color-interpolation-filters="sRGB">
<feFlood flood-opacity="0" result="BackgroundImageFix"/>
<feColorMatrix in="SourceAlpha" type="matrix" values="0 0 0 0 0 0 0 0 0 0 0 0 0 0 0 0 0 0 127 0" result="hardAlpha"/>
<feOffset dy="1"/>
<feGaussianBlur stdDeviation="1"/>
<feColorMatrix type="matrix" values="0 0 0 0 0.0627451 0 0 0 0 0.0941176 0 0 0 0 0.156863 0 0 0 0.05 0"/>
<feBlend mode="normal" in2="BackgroundImageFix" result="effect1_dropShadow_872_2272"/>
<feBlend mode="normal" in="SourceGraphic" in2="effect1_dropShadow_872_2272" result="shape"/>
</filter>
<filter id="filter1_b_872_2272" x="-16" y="-8" width="64" height="64" filterUnits="userSpaceOnUse" color-interpolation-filters="sRGB">
<feFlood flood-opacity="0" result="BackgroundImageFix"/>
<feGaussianBlur in="BackgroundImageFix" stdDeviation="8"/>
<feComposite in2="SourceAlpha" operator="in" result="effect1_backgroundBlur_872_2272"/>
<feBlend mode="normal" in="SourceGraphic" in2="effect1_backgroundBlur_872_2272" result="shape"/>
</filter>
<linearGradient id="paint0_linear_872_2272" x1="8.68628" y1="0.404297" x2="46.1154" y2="0.887576" gradientUnits="userSpaceOnUse">
<stop offset="0.450283" stop-color="#B540F6"/>
<stop offset="0.750161" stop-color="#F18F8C"/>
<stop offset="0.832166" stop-color="#FB9D79"/>
</linearGradient>
</defs>
</svg>
