<svg width="40" height="41" viewBox="0 0 40 41" fill="none" xmlns="http://www.w3.org/2000/svg">
<g style="mix-blend-mode:multiply">
<g filter="url(#filter0_d_872_2308)">
<rect x="8.68628" y="0.404297" width="32" height="32" rx="8" transform="rotate(15 8.68628 0.404297)" fill="url(#paint0_linear_872_2308)"/>
</g>
<g filter="url(#filter1_b_872_2308)">
<rect y="8" width="32" height="32" rx="6" fill="white" fill-opacity="0.6"/>
<path d="M15.3333 23.3333H12.1333C11.3865 23.3333 11.0131 23.3333 10.7279 23.4787C10.477 23.6065 10.2731 23.8105 10.1452 24.0613C9.99992 24.3466 9.99992 24.7199 9.99992 25.4667V30M21.9999 30V20.1333C21.9999 19.3866 21.9999 19.0132 21.8546 18.728C21.7268 18.4771 21.5228 18.2732 21.2719 18.1453C20.9867 18 20.6133 18 19.8666 18H17.4666C16.7198 18 16.3465 18 16.0613 18.1453C15.8104 18.2732 15.6064 18.4771 15.4786 18.728C15.3333 19.0132 15.3333 19.3866 15.3333 20.1333V30M22.6666 30H9.33325M17.6666 20.6667H19.6666M17.6666 23.3333H19.6666M17.6666 26H19.6666" stroke="white" stroke-linecap="round" stroke-linejoin="round"/>
<rect x="0.375" y="8.375" width="31.25" height="31.25" rx="5.625" stroke="white" stroke-opacity="0.6" stroke-width="0.75"/>
</g>
</g>
<defs>
<filter id="filter0_d_872_2308" x="-1.59595" y="-0.595703" width="43.1919" height="43.1914" filterUnits="userSpaceOnUse" color-interpolation-filters="sRGB">
<feFlood flood-opacity="0" result="BackgroundImageFix"/>
<feColorMatrix in="SourceAlpha" type="matrix" values="0 0 0 0 0 0 0 0 0 0 0 0 0 0 0 0 0 0 127 0" result="hardAlpha"/>
<feOffset dy="1"/>
<feGaussianBlur stdDeviation="1"/>
<feColorMatrix type="matrix" values="0 0 0 0 0.0627451 0 0 0 0 0.0941176 0 0 0 0 0.156863 0 0 0 0.05 0"/>
<feBlend mode="normal" in2="BackgroundImageFix" result="effect1_dropShadow_872_2308"/>
<feBlend mode="normal" in="SourceGraphic" in2="effect1_dropShadow_872_2308" result="shape"/>
</filter>
<filter id="filter1_b_872_2308" x="-16" y="-8" width="64" height="64" filterUnits="userSpaceOnUse" color-interpolation-filters="sRGB">
<feFlood flood-opacity="0" result="BackgroundImageFix"/>
<feGaussianBlur in="BackgroundImageFix" stdDeviation="8"/>
<feComposite in2="SourceAlpha" operator="in" result="effect1_backgroundBlur_872_2308"/>
<feBlend mode="normal" in="SourceGraphic" in2="effect1_backgroundBlur_872_2308" result="shape"/>
</filter>
<linearGradient id="paint0_linear_872_2308" x1="8.68628" y1="0.404297" x2="46.1154" y2="0.887576" gradientUnits="userSpaceOnUse">
<stop offset="0.450283" stop-color="#B540F6"/>
<stop offset="0.750161" stop-color="#F18F8C"/>
<stop offset="0.832166" stop-color="#FB9D79"/>
</linearGradient>
</defs>
</svg>
