<svg width="20" height="20" viewBox="0 0 20 20" fill="none" xmlns="http://www.w3.org/2000/svg">
<path d="M7.79514 17.5003C8.38275 18.019 9.15462 18.3337 10 18.3337C10.8454 18.3337 11.6172 18.019 12.2048 17.5003M15 6.66699C15 5.34091 14.4732 4.06914 13.5355 3.13146C12.5978 2.19378 11.3261 1.66699 10 1.66699C8.67391 1.66699 7.40214 2.19378 6.46446 3.13146C5.52678 4.06914 5 5.34091 5 6.66699C5 9.24215 4.35039 11.0053 3.62472 12.1715C3.0126 13.1552 2.70654 13.6471 2.71777 13.7843C2.73019 13.9362 2.76238 13.9942 2.88481 14.085C2.99538 14.167 3.49382 14.167 4.49071 14.167H15.5093C16.5062 14.167 17.0046 14.167 17.1152 14.085C17.2376 13.9942 17.2698 13.9362 17.2822 13.7843C17.2934 13.6471 16.9874 13.1552 16.3753 12.1715C15.6496 11.0053 15 9.24215 15 6.66699Z" stroke="#667085" stroke-width="1.66667" stroke-linecap="round" stroke-linejoin="round"/>
</svg>
