<svg width="18" height="18" viewBox="0 0 18 18" fill="none" xmlns="http://www.w3.org/2000/svg">
<rect width="18" height="18" rx="9" fill="#EC45E6" fill-opacity="0.18"/>
<g opacity="0.9">
<path fill-rule="evenodd" clip-rule="evenodd" d="M5.01844 4.44309C5.15631 3.78434 5.73713 3.3125 6.41014 3.3125H12.25C12.431 3.3125 12.6026 3.39291 12.7183 3.53196C12.8341 3.67101 12.8821 3.85433 12.8493 4.03227L11.4274 11.751C11.3671 12.0789 11.0546 12.2968 10.7269 12.2415C10.6937 12.2471 10.6597 12.25 10.6249 12.25H5.14061C4.80406 12.25 4.53123 12.5228 4.53123 12.8594C4.53123 13.1959 4.80406 13.4687 5.14061 13.4687H11.1084C11.596 13.4687 12.0148 13.1222 12.1061 12.6432L13.4794 5.43286C13.5424 5.10226 13.8614 4.8853 14.1921 4.94827C14.5226 5.01124 14.7396 5.3303 14.6767 5.6609L13.3033 12.8712C13.1025 13.925 12.1812 14.6875 11.1084 14.6875H5.14061C4.13098 14.6875 3.3125 13.869 3.3125 12.8594C3.3125 12.816 3.31401 12.773 3.31698 12.7304C3.30907 12.6657 3.31146 12.5987 3.32555 12.5314L5.01844 4.44309ZM6.8546 4.9375C6.67973 4.9375 6.52449 5.04939 6.46919 5.21528L6.33378 5.62153C6.2461 5.88459 6.44189 6.15625 6.71917 6.15625H9.9252C10.1001 6.15625 10.2553 6.04435 10.3106 5.87846L10.446 5.47222C10.5337 5.20916 10.3379 4.9375 10.0606 4.9375H6.8546Z" fill="#ED46E7"/>
</g>
</svg>
