<svg width="20" height="20" viewBox="0 0 20 20" fill="none" xmlns="http://www.w3.org/2000/svg">
<path d="M10.0002 10.8327C10.4604 10.8327 10.8335 10.4596 10.8335 9.99935C10.8335 9.53911 10.4604 9.16602 10.0002 9.16602C9.53993 9.16602 9.16683 9.53911 9.16683 9.99935C9.16683 10.4596 9.53993 10.8327 10.0002 10.8327Z" stroke="#1D2939" stroke-width="2" stroke-linecap="round" stroke-linejoin="round"/>
<path d="M15.8335 10.8327C16.2937 10.8327 16.6668 10.4596 16.6668 9.99935C16.6668 9.53911 16.2937 9.16602 15.8335 9.16602C15.3733 9.16602 15.0002 9.53911 15.0002 9.99935C15.0002 10.4596 15.3733 10.8327 15.8335 10.8327Z" stroke="#1D2939" stroke-width="2" stroke-linecap="round" stroke-linejoin="round"/>
<path d="M4.16683 10.8327C4.62707 10.8327 5.00016 10.4596 5.00016 9.99935C5.00016 9.53911 4.62707 9.16602 4.16683 9.16602C3.70659 9.16602 3.3335 9.53911 3.3335 9.99935C3.3335 10.4596 3.70659 10.8327 4.16683 10.8327Z" stroke="#1D2939" stroke-width="2" stroke-linecap="round" stroke-linejoin="round"/>
</svg>
