<svg width="17" height="13" viewBox="0 0 17 13" fill="none" xmlns="http://www.w3.org/2000/svg">
<path d="M16.375 6.5C16.375 6.67405 16.3059 6.84097 16.1828 6.96404C16.0597 7.08711 15.8928 7.15625 15.7188 7.15625H1.28125C1.1072 7.15625 0.940282 7.08711 0.817211 6.96404C0.694141 6.84097 0.625 6.67405 0.625 6.5C0.625 6.32595 0.694141 6.15903 0.817211 6.03596C0.940282 5.91289 1.1072 5.84375 1.28125 5.84375H15.7188C15.8928 5.84375 16.0597 5.91289 16.1828 6.03596C16.3059 6.15903 16.375 6.32595 16.375 6.5ZM1.28125 1.90625H15.7188C15.8928 1.90625 16.0597 1.83711 16.1828 1.71404C16.3059 1.59097 16.375 1.42405 16.375 1.25C16.375 1.07595 16.3059 0.909032 16.1828 0.785961C16.0597 0.662891 15.8928 0.59375 15.7188 0.59375H1.28125C1.1072 0.59375 0.940282 0.662891 0.817211 0.785961C0.694141 0.909032 0.625 1.07595 0.625 1.25C0.625 1.42405 0.694141 1.59097 0.817211 1.71404C0.940282 1.83711 1.1072 1.90625 1.28125 1.90625ZM15.7188 11.0938H1.28125C1.1072 11.0938 0.940282 11.1629 0.817211 11.286C0.694141 11.409 0.625 11.576 0.625 11.75C0.625 11.924 0.694141 12.091 0.817211 12.214C0.940282 12.3371 1.1072 12.4062 1.28125 12.4062H15.7188C15.8928 12.4062 16.0597 12.3371 16.1828 12.214C16.3059 12.091 16.375 11.924 16.375 11.75C16.375 11.576 16.3059 11.409 16.1828 11.286C16.0597 11.1629 15.8928 11.0938 15.7188 11.0938Z" fill="#343330"/>
</svg>
