<svg width="24" height="24" viewBox="0 0 24 24" fill="none" xmlns="http://www.w3.org/2000/svg">
<path d="M12.0001 1.28594C8.46118 1.28594 5.32785 2.99673 3.37778 5.63647L6.68702 11.3684C6.84091 10.0785 7.45795 8.8885 8.42376 8.0197C9.38959 7.1509 10.6381 6.66278 11.9371 6.64581C11.9579 6.64351 11.9792 6.64253 12.0004 6.64269H21.2802C19.4291 3.43965 15.9706 1.28594 12.0001 1.28594ZM2.72032 6.64202C1.80942 8.21796 1.28577 10.0466 1.28577 12.0002C1.28577 17.5187 5.44339 22.0528 10.8013 22.6471L14.1054 16.9244C13.44 17.2094 12.724 17.3569 12.0001 17.3574C10.1168 17.3548 8.37317 16.3638 7.40752 14.7469C7.3901 14.7255 7.37431 14.7026 7.36049 14.6788L2.72032 6.64202ZM12.0001 7.71451C10.8635 7.71451 9.77342 8.16614 8.96973 8.96983C8.16605 9.7735 7.71458 10.8636 7.71458 12.0002C7.71458 13.1368 8.16609 14.2269 8.96973 15.0306C9.77338 15.8343 10.8635 16.2858 12.0001 16.2858C13.1367 16.2858 14.2268 15.8342 15.0305 15.0306C15.8342 14.2269 16.2856 13.1368 16.2856 12.0002C16.2856 10.8636 15.8341 9.7735 15.0305 8.96983C14.2269 8.16614 13.1367 7.71451 12.0001 7.71451ZM15.2054 7.71451C16.5578 8.72434 17.355 10.3125 17.3572 12.0002C17.355 12.9089 17.1217 13.8022 16.6793 14.596C16.6686 14.6247 16.6555 14.6523 16.64 14.6787L12.0007 22.7143C17.9242 22.714 22.7142 17.9236 22.7142 12.0001C22.7142 10.4752 22.3951 9.02656 21.8227 7.71437L15.2054 7.71451Z" fill="black"/>
</svg>
