<svg width="16" height="16" viewBox="0 0 16 16" fill="none" xmlns="http://www.w3.org/2000/svg">
<path d="M14.5 8.00003C14.5 9.72394 13.8152 11.3772 12.5962 12.5962C11.3772 13.8152 9.72391 14.5 8 14.5C6.27609 14.5 4.62279 13.8152 3.40381 12.5962C2.18482 11.3772 1.5 9.72394 1.5 8.00003C1.5 5.43753 2.98813 3.10253 5.29125 2.04566C5.35092 2.01824 5.4154 2.00285 5.48102 2.00036C5.54664 1.99787 5.61211 2.00832 5.67368 2.03113C5.73526 2.05394 5.79174 2.08866 5.8399 2.13329C5.88806 2.17793 5.92696 2.23161 5.95437 2.29128C5.98179 2.35095 5.99718 2.41544 5.99967 2.48106C6.00217 2.54667 5.99171 2.61214 5.9689 2.67372C5.94609 2.73529 5.91138 2.79177 5.86674 2.83994C5.8221 2.8881 5.76842 2.92699 5.70875 2.95441C3.75937 3.84941 2.5 5.82941 2.5 8.00003C2.5 9.45872 3.07946 10.8577 4.11091 11.8891C5.14236 12.9206 6.54131 13.5 8 13.5C9.45869 13.5 10.8576 12.9206 11.8891 11.8891C12.9205 10.8577 13.5 9.45872 13.5 8.00003C13.5 5.82941 12.2406 3.84941 10.2913 2.95441C10.1707 2.89904 10.0772 2.79808 10.0311 2.67372C9.98504 2.54936 9.99026 2.41179 10.0456 2.29128C10.101 2.17078 10.202 2.0772 10.3263 2.03113C10.4507 1.98507 10.5882 1.99029 10.7087 2.04566C13.0119 3.10253 14.5 5.43753 14.5 8.00003Z" fill="#292929"/>
</svg>
