<svg width="62" height="62" viewBox="0 0 62 62" fill="none" xmlns="http://www.w3.org/2000/svg">
<path fill-rule="evenodd" clip-rule="evenodd" d="M31 4.8921C30.1177 4.89288 29.2719 5.25663 28.6486 5.90333C28.0252 6.55002 27.6755 7.42669 27.6762 8.34048C27.677 9.25426 28.0282 10.1303 28.6526 10.7759C29.277 11.4215 30.1234 11.7837 31.0057 11.783C31.888 11.7822 32.7338 11.4184 33.3571 10.7717C33.9805 10.125 34.3302 9.24836 34.3295 8.33457C34.3287 7.42079 33.9775 6.54474 33.3531 5.89915C32.7287 5.25356 31.8823 4.89131 31 4.8921ZM22.9614 8.34048C22.9599 6.13052 23.8059 4.01042 25.3133 2.44636C26.8208 0.882299 28.8663 0.00234796 31 0C32.9288 0.00055316 34.7934 0.718137 36.2546 2.02223C37.7158 3.32632 38.6765 5.13029 38.962 7.10602C39.2474 9.08175 38.8387 11.098 37.8102 12.788C36.7817 14.478 35.2016 15.7295 33.3574 16.3149V25.4111C35.0687 25.9581 36.5551 27.0801 37.582 28.5997L45.9199 25.789V25.6385C45.9184 23.4285 46.7644 21.3084 48.2718 19.7444C49.7793 18.1803 51.8248 17.3003 53.9585 17.298C55.0153 17.2988 56.0616 17.5151 57.0376 17.9347C58.0137 18.3543 58.9003 18.9688 59.6471 19.7433C60.3938 20.5178 60.9859 21.437 61.3896 22.4485C61.7933 23.46 62.0007 24.544 62 25.6385C62.0008 27.8479 61.1544 29.9673 59.6471 31.5307C58.1397 33.0941 56.0946 33.9737 53.9614 33.976C52.671 33.9775 51.3993 33.6569 50.254 33.0412C49.1087 32.4255 48.1237 31.5329 47.3822 30.439L39.0386 33.2497V33.3855C39.0386 35.2691 38.44 37.0051 37.4252 38.3987L42.5933 45.7737C43.8052 45.3437 45.0988 45.2195 46.3664 45.4115C47.634 45.6036 48.839 46.1063 49.8812 46.8779C50.9234 47.6495 51.7727 48.6677 52.3584 49.8477C52.9441 51.0278 53.2494 52.3356 53.2487 53.6625C53.2495 55.8724 52.4028 57.9922 50.8948 59.5557C49.3868 61.1192 47.341 61.9984 45.2073 62C43.7116 61.9999 42.2456 61.568 40.9737 60.7529C39.7018 59.9378 38.6744 58.7717 38.0068 57.3855C37.3393 55.9993 37.0579 54.4478 37.1943 52.9052C37.3308 51.3625 37.8796 49.8898 38.7792 48.6523L33.6111 41.2772C31.9191 41.8808 30.0809 41.8808 28.3889 41.2772L23.2179 48.6523C24.1174 49.8896 24.6662 51.3621 24.8028 52.9044C24.9393 54.4468 24.6582 55.9981 23.9909 57.3842C23.3237 58.7703 22.2967 59.9364 21.0253 60.7517C19.7538 61.5671 18.2882 61.9993 16.7927 62C14.659 61.9977 12.6135 61.1177 11.106 59.5536C9.59859 57.9896 8.7526 55.8695 8.75412 53.6595C8.75409 52.3333 9.05965 51.0262 9.64541 49.8468C10.2312 48.6674 11.0802 47.6499 12.122 46.8787C13.1637 46.1075 14.3682 45.6049 15.6352 45.4128C16.9022 45.2206 18.1952 45.3443 19.4067 45.7737L24.5748 38.3987C23.4964 36.9172 22.9275 35.1047 22.9585 33.2497L14.6177 30.439C13.8768 31.5326 12.8922 32.4251 11.7474 33.0408C10.6026 33.6565 9.3314 33.9773 8.04147 33.976C5.90772 33.9744 3.86193 33.0952 2.35394 31.5317C0.845954 29.9682 -0.000754354 27.8484 2.02567e-06 25.6385C-0.00151087 23.4285 0.844472 21.3084 2.35192 19.7444C3.85938 18.1803 5.90487 17.3003 8.03862 17.298C9.10775 17.2986 10.166 17.5198 11.1517 17.9488C12.1373 18.3777 13.0306 19.0058 13.7792 19.7963C14.5279 20.5868 15.1169 21.5239 15.512 22.5528C15.907 23.5818 16.1002 24.6819 16.0801 25.789L24.418 28.5968C25.4453 27.0782 26.9317 25.9573 28.6426 25.4111V16.3149C26.9963 15.7901 25.5558 14.7324 24.5327 13.2971C23.5097 11.8618 22.9579 10.1245 22.9585 8.34048H22.9614ZM8.04147 22.1871C7.60443 22.1873 7.1717 22.2767 6.76799 22.4501C6.36429 22.6235 5.99751 22.8776 5.68861 23.1978C5.3797 23.518 5.13472 23.8981 4.96764 24.3163C4.80056 24.7346 4.71467 25.1829 4.71485 25.6355C4.71504 26.0882 4.80131 26.5364 4.96873 26.9545C5.13615 27.3726 5.38145 27.7525 5.69062 28.0724C5.99979 28.3924 6.36678 28.6461 6.77063 28.8191C7.17448 28.9922 7.60728 29.0811 8.04432 29.081C8.48118 29.0808 8.91373 28.9914 9.31726 28.8181C9.72079 28.6448 10.0874 28.3908 10.3962 28.0708C10.705 27.7507 10.9498 27.3708 11.1168 26.9527C11.2838 26.5346 11.3697 26.0865 11.3695 25.634C11.3693 25.1816 11.2831 24.7336 11.1157 24.3157C10.9484 23.8977 10.7032 23.518 10.3942 23.1982C10.0851 22.8784 9.7183 22.6248 9.31462 22.4518C8.91095 22.2788 8.47833 22.1869 8.04147 22.1871ZM53.9585 22.1871C53.5215 22.1875 53.0888 22.2771 52.6852 22.4507C52.2815 22.6242 51.9149 22.8785 51.6061 23.1988C51.2973 23.5192 51.0525 23.8994 50.8856 24.3177C50.7187 24.736 50.633 25.1843 50.6333 25.637C50.6337 26.0897 50.7202 26.5378 50.8878 26.9558C51.0553 27.3739 51.3008 27.7537 51.6101 28.0735C51.9194 28.3933 52.2865 28.6468 52.6904 28.8197C53.0943 28.9926 53.5272 29.0813 53.9642 29.081C54.4011 29.0806 54.8336 28.9911 55.2371 28.8176C55.6405 28.644 56.007 28.3899 56.3157 28.0697C56.6243 27.7495 56.869 27.3695 57.0359 26.9513C57.2027 26.5331 57.2884 26.085 57.288 25.6326C57.2876 25.1801 57.2012 24.7322 57.0337 24.3143C56.8662 23.8964 56.6208 23.5168 56.3116 23.1972C56.0025 22.8775 55.6355 22.624 55.2318 22.4512C54.828 22.2784 54.3954 22.1868 53.9585 22.1871ZM31 29.943C30.5631 29.9432 30.1306 30.0326 29.7271 30.2059C29.3235 30.3792 28.9569 30.6332 28.6481 30.9532C28.0245 31.5997 27.6744 32.4762 27.6748 33.3899C27.6752 34.3037 28.026 35.1799 28.6502 35.8258C29.2743 36.4717 30.1206 36.8343 31.0029 36.8339C31.8855 36.8335 32.7319 36.47 33.3557 35.8233C33.9796 35.1766 34.3298 34.2997 34.3295 33.3855C34.3291 32.4713 33.9781 31.5948 33.3537 30.9486C32.7293 30.3025 31.8827 29.9397 31 29.9401V29.943ZM16.7927 50.217C15.9105 50.2178 15.0646 50.5816 14.4413 51.2283C13.818 51.875 13.4682 52.7516 13.469 53.6654C13.4697 54.5792 13.8209 55.4553 14.4453 56.1009C15.0697 56.7464 15.9162 57.1087 16.7984 57.1079C17.2353 57.1075 17.6678 57.018 18.0713 56.8445C18.4747 56.671 18.8412 56.4169 19.1499 56.0967C19.4585 55.7765 19.7032 55.3964 19.8701 54.9783C20.0369 54.5601 20.1226 54.112 20.1222 53.6595C20.1218 53.2071 20.0354 52.7591 19.8679 52.3412C19.7004 51.9234 19.455 51.5438 19.1458 51.2241C18.8367 50.9044 18.4697 50.651 18.066 50.4782C17.6622 50.3054 17.2296 50.2167 16.7927 50.217ZM45.2073 50.217C44.7703 50.217 44.3376 50.3063 43.934 50.4797C43.5304 50.653 43.1637 50.9071 42.855 51.2274C42.5463 51.5477 42.3016 51.9279 42.1349 52.3462C41.9682 52.7646 41.8827 53.2129 41.8835 53.6654C41.8841 54.3469 42.0797 55.0128 42.4457 55.5791C42.8117 56.1454 43.3316 56.5865 43.9397 56.8468C44.5478 57.107 45.2167 57.1746 45.8619 57.0411C46.5071 56.9076 47.0996 56.5789 47.5644 56.0967C48.0292 55.6144 48.3456 55.0002 48.4734 54.3317C48.6012 53.6633 48.5347 52.9706 48.2824 52.3412C48.0301 51.7119 47.6033 51.1742 47.0559 50.7961C46.5085 50.418 45.8652 50.2165 45.2073 50.217Z" fill="#A7A7A7"/>
</svg>
