<svg width="14" height="14" viewBox="0 0 14 14" fill="none" xmlns="http://www.w3.org/2000/svg">
<path fill-rule="evenodd" clip-rule="evenodd" d="M10.4361 11.578L9.25138 12.2605C8.4315 12.733 8.02112 12.9701 7.58537 13.0629C7.19943 13.1448 6.80057 13.1448 6.41462 13.0629C5.97887 12.9701 5.5685 12.7339 4.74863 12.2605L3.56387 11.578C2.744 11.1046 2.33362 10.8684 2.03525 10.5367C1.7713 10.2441 1.57186 9.89913 1.44987 9.52436C1.3125 9.10086 1.3125 8.62836 1.3125 7.68249V6.31749C1.3125 5.37074 1.3125 4.89824 1.44987 4.47474C1.57237 4.09936 1.77187 3.75461 2.03612 3.46236C2.33362 3.13074 2.744 2.89449 3.56387 2.42111L4.74863 1.73861C5.5685 1.26611 5.97887 1.02899 6.41462 0.936237C6.80057 0.854262 7.19943 0.854262 7.58537 0.936237C8.02112 1.02899 8.4315 1.26524 9.25138 1.73861L10.4361 2.42111C11.256 2.89449 11.6664 3.13074 11.9648 3.46236C12.2281 3.75461 12.4285 4.09936 12.5501 4.47474C12.6875 4.89824 12.6875 5.37074 12.6875 6.31749V7.68249C12.6875 8.62924 12.6875 9.10174 12.5501 9.52524C12.4276 9.90061 12.2281 10.2454 11.9639 10.5376C11.6664 10.8692 11.256 11.1046 10.4361 11.578ZM5.404 11.123L4.22012 10.4405C3.32325 9.92336 3.136 9.79824 3.01 9.65824C2.86946 9.50211 2.76333 9.31817 2.6985 9.11836C2.63988 8.93986 2.625 8.71674 2.625 7.68249V6.31749C2.625 5.98674 2.62675 5.73911 2.63025 5.54924L5.27362 6.87049C5.59603 7.03568 5.8666 7.28662 6.05557 7.59569C6.24453 7.90476 6.34455 8.25998 6.34462 8.62224V11.6471C6.02652 11.4813 5.71286 11.3072 5.404 11.1247V11.123ZM7.65713 11.6454C7.84263 11.5535 8.12263 11.3969 8.596 11.1239L9.77987 10.4414C10.6776 9.92336 10.864 9.79824 10.99 9.65824C11.13 9.50249 11.2368 9.31786 11.3015 9.11836C11.3593 8.93986 11.375 8.71674 11.375 7.68161V6.31749C11.375 5.98674 11.3733 5.73911 11.3698 5.54924L8.74475 6.86174L8.73863 6.86436C8.41333 7.02858 8.14 7.27986 7.94906 7.59022C7.75811 7.90058 7.65705 8.25784 7.65713 8.62224V11.6462V11.6454ZM10.9445 4.29361L8.1585 5.68661L8.14975 5.69011L7.88112 5.82486C7.60769 5.96162 7.30617 6.03283 7.00044 6.03283C6.69471 6.03283 6.39318 5.96162 6.11975 5.82486L5.866 5.69799L5.84325 5.68661L3.0555 4.29274C3.18675 4.16761 3.423 4.01711 4.21925 3.55774L5.404 2.87524C6.30088 2.35724 6.503 2.25836 6.68762 2.21899C6.89325 2.17524 7.10675 2.17524 7.31238 2.21899C7.497 2.25836 7.69913 2.35724 8.596 2.87524L9.77987 3.55774C10.5779 4.01711 10.8133 4.16849 10.9445 4.29361Z" fill="#5C5C5E"/>
</svg>
