<svg width="24" height="16" viewBox="0 0 24 16" fill="none" xmlns="http://www.w3.org/2000/svg">
<path d="M10.9922 10.8048C11.9974 10.1356 12.7605 9.16073 13.1688 8.02426C13.577 6.8878 13.6087 5.65012 13.2592 4.49425C12.9096 3.33838 12.1973 2.32569 11.2277 1.60593C10.2581 0.886171 9.08257 0.497559 7.875 0.497559C6.66743 0.497559 5.49191 0.886171 4.52229 1.60593C3.55266 2.32569 2.8404 3.33838 2.49084 4.49425C2.14127 5.65012 2.17296 6.8878 2.58122 8.02426C2.98947 9.16073 3.75262 10.1356 4.75781 10.8048C2.93952 11.475 1.38666 12.7151 0.330938 14.3402C0.275453 14.4226 0.236913 14.5153 0.217558 14.6128C0.198203 14.7103 0.19842 14.8106 0.218196 14.908C0.237971 15.0055 0.276911 15.098 0.332752 15.1802C0.388593 15.2624 0.460221 15.3327 0.543472 15.387C0.626723 15.4413 0.719937 15.4785 0.817696 15.4965C0.915455 15.5144 1.01581 15.5128 1.11292 15.4916C1.21004 15.4705 1.30197 15.4302 1.38339 15.3732C1.46481 15.3162 1.53409 15.2435 1.58719 15.1595C2.26818 14.1121 3.20002 13.2515 4.2981 12.6556C5.39617 12.0598 6.62569 11.7477 7.875 11.7477C9.12431 11.7477 10.3538 12.0598 11.4519 12.6556C12.55 13.2515 13.4818 14.1121 14.1628 15.1595C14.2728 15.323 14.4427 15.4367 14.6359 15.4759C14.829 15.5151 15.0298 15.4767 15.1948 15.369C15.3599 15.2614 15.4759 15.0931 15.5179 14.9006C15.5598 14.708 15.5243 14.5067 15.4191 14.3402C14.3633 12.7151 12.8105 11.475 10.9922 10.8048ZM3.75 6.12484C3.75 5.30899 3.99193 4.51147 4.44519 3.83311C4.89845 3.15476 5.54269 2.62605 6.29643 2.31384C7.05018 2.00163 7.87958 1.91994 8.67975 2.0791C9.47992 2.23827 10.2149 2.63113 10.7918 3.20803C11.3687 3.78492 11.7616 4.51992 11.9207 5.32009C12.0799 6.12027 11.9982 6.94967 11.686 7.70341C11.3738 8.45716 10.8451 9.10139 10.1667 9.55465C9.48838 10.0079 8.69085 10.2498 7.875 10.2498C6.78136 10.2486 5.73287 9.81361 4.95956 9.04029C4.18624 8.26697 3.75124 7.21848 3.75 6.12484ZM23.4506 15.378C23.284 15.4866 23.0811 15.5246 22.8865 15.4837C22.6919 15.4427 22.5215 15.3261 22.4128 15.1595C21.7326 14.1115 20.8009 13.2505 19.7026 12.6549C18.6043 12.0593 17.3744 11.7482 16.125 11.7498C15.9261 11.7498 15.7353 11.6708 15.5947 11.5302C15.454 11.3895 15.375 11.1988 15.375 10.9998C15.375 10.8009 15.454 10.6102 15.5947 10.4695C15.7353 10.3289 15.9261 10.2498 16.125 10.2498C16.7325 10.2493 17.3323 10.1145 17.8817 9.85526C18.431 9.59599 18.9164 9.21858 19.303 8.75C19.6896 8.28143 19.9679 7.73325 20.1181 7.14463C20.2682 6.55602 20.2866 5.9415 20.1717 5.34498C20.0569 4.74846 19.8117 4.18468 19.4537 3.6939C19.0957 3.20312 18.6337 2.79747 18.1008 2.50593C17.5679 2.2144 16.9771 2.04416 16.3707 2.0074C15.7644 1.97064 15.1574 2.06826 14.5931 2.29328C14.5011 2.33305 14.4021 2.35398 14.3019 2.35482C14.2016 2.35567 14.1023 2.33642 14.0096 2.29821C13.9169 2.26 13.8329 2.2036 13.7624 2.13236C13.6919 2.06111 13.6364 1.97645 13.5992 1.88339C13.5619 1.79033 13.5437 1.69076 13.5457 1.59055C13.5476 1.49034 13.5696 1.39152 13.6103 1.29995C13.651 1.20838 13.7097 1.1259 13.7829 1.0574C13.8561 0.988888 13.9422 0.93574 14.0363 0.901091C15.3276 0.386076 16.764 0.367543 18.0682 0.849066C19.3724 1.33059 20.4521 2.27805 21.099 3.50867C21.7459 4.73929 21.9141 6.16587 21.5712 7.5132C21.2283 8.86053 20.3986 10.0332 19.2422 10.8048C21.0605 11.475 22.6133 12.7151 23.6691 14.3402C23.7777 14.5068 23.8157 14.7097 23.7748 14.9043C23.7338 15.0989 23.6172 15.2693 23.4506 15.378Z" fill="#616161"/>
</svg>
