<svg width="14" height="14" viewBox="0 0 14 14" fill="none" xmlns="http://www.w3.org/2000/svg">
<g clip-path="url(#clip0_217_17124)">
<path d="M2.81997 13.05H10.94C12.34 13.05 13.04 12.35 13.04 10.98V2.79998C13.04 1.41998 12.34 0.72998 10.94 0.72998H2.81997C1.41997 0.72998 0.719971 1.41998 0.719971 2.79998V10.98C0.719971 12.36 1.41997 13.05 2.81997 13.05ZM2.82997 11.98C2.15997 11.98 1.78997 11.62 1.78997 10.93V2.85998C1.78997 2.15998 2.15997 1.79998 2.82997 1.79998H10.93C11.59 1.79998 11.97 2.15998 11.97 2.85998V10.93C11.97 11.63 11.59 11.98 10.93 11.98H2.82997Z" fill="#9DA0A2"/>
<path d="M3.94994 7.33999C3.94994 7.50999 4.08994 7.63999 4.24994 7.63999H6.52994L5.31994 10.89C5.15994 11.31 5.61994 11.55 5.88994 11.2L9.56994 6.59999C9.63994 6.50999 9.66994 6.41999 9.66994 6.32999C9.66994 6.15999 9.53994 6.03999 9.36994 6.03999H7.09994L8.29994 2.79999C8.46994 2.36999 7.99994 2.13999 7.71994 2.47999L4.05994 7.07999C3.98931 7.15299 3.94679 7.24864 3.93994 7.34999L3.94994 7.33999Z" fill="#9DA0A2"/>
</g>
<defs>
<clipPath id="clip0_217_17124">
<rect width="14" height="14" fill="white"/>
</clipPath>
</defs>
</svg>
