<svg width="16" height="16" viewBox="0 0 16 16" fill="none" xmlns="http://www.w3.org/2000/svg">
<g clip-path="url(#clip0_217_17100)">
<path d="M8.5 1.5C7.11553 1.5 5.76216 1.91054 4.61101 2.67971C3.45987 3.44888 2.56266 4.54213 2.03285 5.82122C1.50303 7.1003 1.36441 8.50776 1.63451 9.86563C1.9046 11.2235 2.57129 12.4708 3.55026 13.4497C4.52922 14.4287 5.7765 15.0954 7.13437 15.3655C8.49224 15.6356 9.8997 15.497 11.1788 14.9672C12.4579 14.4373 13.5511 13.5401 14.3203 12.389C15.0895 11.2378 15.5 9.88447 15.5 8.5C15.498 6.64409 14.7599 4.86475 13.4476 3.55242C12.1353 2.24009 10.3559 1.50196 8.5 1.5ZM8.5 14.4231C7.32853 14.4231 6.18336 14.0757 5.20932 13.4249C4.23527 12.774 3.4761 11.849 3.02779 10.7667C2.57949 9.68436 2.46219 8.49343 2.69074 7.34446C2.91928 6.1955 3.4834 5.14011 4.31175 4.31175C5.14011 3.48339 6.1955 2.91928 7.34447 2.69073C8.49343 2.46219 9.68436 2.57949 10.7667 3.02779C11.849 3.47609 12.774 4.23527 13.4249 5.20931C14.0757 6.18336 14.4231 7.32853 14.4231 8.5C14.4213 10.0703 13.7967 11.5759 12.6863 12.6863C11.5759 13.7967 10.0704 14.4213 8.5 14.4231ZM8.5 4.19231C7.64802 4.19231 6.81517 4.44495 6.10678 4.91828C5.39838 5.39162 4.84625 6.06439 4.52021 6.85152C4.19418 7.63864 4.10887 8.50478 4.27508 9.34039C4.44129 10.176 4.85156 10.9436 5.454 11.546C6.05645 12.1484 6.824 12.5587 7.65961 12.7249C8.49522 12.8911 9.36136 12.8058 10.1485 12.4798C10.9356 12.1537 11.6084 11.6016 12.0817 10.8932C12.5551 10.1848 12.8077 9.35198 12.8077 8.5C12.8064 7.35791 12.3522 6.26296 11.5446 5.45538C10.737 4.6478 9.64209 4.19355 8.5 4.19231ZM8.5 11.7308C7.86102 11.7308 7.23638 11.5413 6.70508 11.1863C6.17379 10.8313 5.75969 10.3267 5.51516 9.73636C5.27063 9.14601 5.20665 8.49642 5.33131 7.86971C5.45597 7.243 5.76367 6.66733 6.2155 6.2155C6.66733 5.76367 7.243 5.45597 7.86971 5.33131C8.49642 5.20665 9.14602 5.27063 9.73636 5.51516C10.3267 5.75969 10.8313 6.17378 11.1863 6.70508C11.5413 7.23638 11.7308 7.86101 11.7308 8.5C11.7299 9.35658 11.3892 10.1778 10.7835 10.7835C10.1778 11.3892 9.35658 11.7299 8.5 11.7308Z" fill="#292929"/>
<circle cx="8.5" cy="8.5" r="1.5" fill="#292929"/>
</g>
<defs>
<clipPath id="clip0_217_17100">
<rect width="16" height="16" fill="white"/>
</clipPath>
</defs>
</svg>
