<svg width="16" height="16" viewBox="0 0 16 16" fill="none" xmlns="http://www.w3.org/2000/svg">
<path d="M6.06029 13.9457H9.92411V9.07072C9.92411 8.76272 9.7232 8.5618 9.4152 8.5618H6.57589C6.26114 8.5618 6.06029 8.76272 6.06029 9.07072V13.9457ZM3.44197 14.6355H12.5022C13.4531 14.6355 14.0089 14.0931 14.0089 13.1556V5.756L12.9308 5.01939V12.881C12.9308 13.3163 12.6965 13.5573 12.2746 13.5573H3.66965C3.24107 13.5573 3.0067 13.3163 3.0067 12.881V5.02609L1.92857 5.756V13.1556C1.92857 14.0931 2.48438 14.6355 3.44197 14.6355ZM0 7.18232C0 7.45689 0.214286 7.71803 0.575891 7.71803C0.763394 7.71803 0.917411 7.61763 1.05803 7.50375L7.76114 1.87877C7.90846 1.74484 8.08926 1.74484 8.23663 1.87877L14.9397 7.50375C15.0737 7.61763 15.2277 7.71803 15.4152 7.71803C15.7299 7.71803 15.9844 7.52386 15.9844 7.20243C15.9844 7.00152 15.9174 6.86763 15.7768 6.74706L8.80583 0.887695C8.31029 0.46582 7.69417 0.46582 7.19194 0.887695L0.214286 6.74706C0.0669646 6.86763 0 7.02832 0 7.18232ZM12.3281 4.16225L14.0089 5.58189V2.48814C14.0089 2.1935 13.8214 2.006 13.5268 2.006H12.8103C12.5223 2.006 12.3281 2.1935 12.3281 2.48814V4.16225Z" fill="#292929"/>
</svg>
