<svg width="18" height="19" viewBox="0 0 18 19" fill="none" xmlns="http://www.w3.org/2000/svg">
<path d="M17.5153 7.72831L10.0153 0.652058C10.0116 0.648859 10.0082 0.645414 10.005 0.641745C9.72887 0.39062 9.36903 0.251465 8.99578 0.251465C8.62253 0.251465 8.2627 0.39062 7.98656 0.641745L7.97625 0.652058L0.484687 7.72831C0.331873 7.86883 0.209891 8.03954 0.126461 8.22964C0.0430305 8.41973 -3.15402e-05 8.62508 1.73323e-08 8.83268V17.4999C1.73323e-08 17.8977 0.158035 18.2792 0.43934 18.5605C0.720644 18.8418 1.10218 18.9999 1.5 18.9999H16.5C16.8978 18.9999 17.2794 18.8418 17.5607 18.5605C17.842 18.2792 18 17.8977 18 17.4999V8.83268C18 8.62508 17.957 8.41973 17.8735 8.22964C17.7901 8.03954 17.6681 7.86883 17.5153 7.72831ZM16.5 17.4999H1.5V8.83268L1.51031 8.82331L9 1.74987L16.4906 8.82143L16.5009 8.83081L16.5 17.4999Z" fill="#616161"/>
</svg>
