<svg width="16" height="16" viewBox="0 0 16 16" fill="none" xmlns="http://www.w3.org/2000/svg">
<path d="M13.8333 1H2.16667C1.85725 1 1.5605 1.12292 1.34171 1.34171C1.12292 1.5605 1 1.85725 1 2.16667V13.8333C1 14.1428 1.12292 14.4395 1.34171 14.6583C1.5605 14.8771 1.85725 15 2.16667 15H13.8333C14.1428 15 14.4395 14.8771 14.6583 14.6583C14.8771 14.4395 15 14.1428 15 13.8333V2.16667C15 1.85725 14.8771 1.5605 14.6583 1.34171C14.4395 1.12292 14.1428 1 13.8333 1ZM13.8333 2.16667V9.75H11.7406C11.5875 9.74961 11.4358 9.77963 11.2943 9.83834C11.1529 9.89705 11.0245 9.98326 10.9167 10.092L9.50865 11.5H6.49135L5.08333 10.092C4.97539 9.98317 4.8469 9.89691 4.70532 9.8382C4.56374 9.77949 4.41191 9.74951 4.25865 9.75H2.16667V2.16667H13.8333ZM13.8333 13.8333H2.16667V10.9167H4.25865L5.66667 12.3247C5.77461 12.4335 5.9031 12.5198 6.04468 12.5785C6.18625 12.6372 6.33809 12.6672 6.49135 12.6667H9.50865C9.66191 12.6672 9.81374 12.6372 9.95532 12.5785C10.0969 12.5198 10.2254 12.4335 10.3333 12.3247L11.7414 10.9167H13.8333V13.8333Z" fill="#292929"/>
</svg>
