<svg xmlns="http://www.w3.org/2000/svg" width="138" height="38" viewBox="0 0 138 38" fill="none">
<g clip-path="url(#clip0_342_27778)">
<rect x="4" y="17" width="16" height="16" fill="url(#paint0_linear_342_27778)"/>
<path d="M-0.988205 20.2373C-0.988205 14.7167 -0.988205 9.19512 -0.988205 3.67254C-0.996168 3.24481 -0.973018 2.81706 -0.918927 2.39267C-0.725822 1.04513 0.0392299 0.2978 1.41308 0.0903725C1.74095 0.0406645 2.07203 0.0150978 2.40366 0.0138761C7.56296 0.0138761 12.7223 -0.0302554 17.8816 0.038887C25.5807 0.141865 31.2427 3.71668 34.9485 10.3764C36.6143 13.3701 37.1435 16.6552 36.968 20.0564C36.7572 24.1755 35.3804 27.8533 32.7271 31.0103C30.0103 34.2468 26.6937 36.5726 22.4955 37.5038C20.5467 37.9363 18.5641 37.9113 16.5903 37.929C12.1783 37.9702 7.76639 37.9599 3.35445 37.9716C2.20761 37.9716 1.06028 37.9809 -0.0875403 37.9996C-0.864384 38.0084 -1 37.8834 -1 37.0919C-1 31.4732 -1 25.855 -1 20.2373H-0.988205ZM14.0725 26.5116C14.1168 26.6878 14.1454 26.8674 14.158 27.0486C14.158 28.6492 14.158 30.2512 14.158 31.8518C14.158 32.3373 14.2892 32.5285 14.6902 32.53C15.7117 32.53 16.7377 32.53 17.7577 32.477C18.4447 32.4373 18.8161 32.0165 18.9105 31.331C18.9388 31.14 18.9545 30.9474 18.9577 30.7543C18.9636 26.8059 18.9675 22.8579 18.9694 18.9104C18.9694 18.2131 18.8102 18.0571 18.1159 18.0571C14.1605 18.0571 10.205 18.0601 6.24955 18.066C4.98774 18.066 4.51455 18.522 4.48065 19.7769C4.46001 20.5492 4.48065 21.323 4.46886 22.0953C4.46886 22.7191 4.61627 22.8691 5.25455 22.8677C6.91437 22.8677 8.5737 22.8677 10.2325 22.8677C10.3505 22.8677 10.4669 22.8809 10.6748 22.8942C10.3932 23.1884 10.175 23.437 9.94657 23.668C8.32507 25.295 6.70358 26.9044 5.11009 28.5594C4.81537 28.8644 4.61964 29.251 4.54846 29.6686C4.4497 30.4572 4.48065 31.2633 4.48065 32.0636C4.48065 32.377 4.70029 32.5403 4.99806 32.5417C5.75721 32.5417 6.51783 32.5329 7.27699 32.5167C7.49972 32.5099 7.71882 32.4586 7.92136 32.3658C8.1239 32.2731 8.30577 32.1408 8.45626 31.9768C9.62226 30.7999 10.7809 29.6142 11.9646 28.4461C12.6279 27.7915 13.3399 27.1795 14.0725 26.5116Z" fill="black"/>
<path d="M51.2049 9.62318C56.4332 9.62318 60.0568 13.6609 60.0568 18.8116C60.0568 23.9623 56.4332 28 51.2049 28H44.8894V9.62318H51.2049ZM51.2049 24.9976C54.3884 24.9976 56.8732 22.7975 56.8732 18.8116C56.8732 14.8256 54.3884 12.6256 51.2049 12.6256H48.073V24.9976H51.2049ZM74.5777 21.6069V22.4352H64.6645C64.7422 24.0399 65.9587 25.4376 68.2623 25.4376C69.9188 25.4376 70.98 24.5576 71.4976 23.6517L74.293 23.9623C73.9047 25.7482 71.86 28.2588 68.2364 28.2588C64.1987 28.2588 61.481 25.2047 61.481 21.374C61.481 17.7245 64.0692 14.6445 68.0293 14.6445C72.067 14.6445 74.5777 17.8539 74.5777 21.6069ZM68.0293 17.4657C66.0881 17.4657 64.7422 18.7339 64.6645 20.2351H71.3941C71.2905 18.7857 70.0223 17.4657 68.0293 17.4657ZM76.3434 21.4516C76.3434 17.6986 79.0869 14.6445 82.84 14.6445C85.0918 14.6445 86.8518 15.8351 87.5247 17.3363L87.7059 14.9033H90.7342V28H87.7059L87.5247 25.567C86.8518 27.0682 85.0918 28.2588 82.84 28.2588C79.0869 28.2588 76.3434 25.2047 76.3434 21.4516ZM79.527 21.4516C79.527 23.5223 81.1317 25.2564 83.3835 25.2564C85.6094 25.2564 87.1883 23.5223 87.1883 21.4516C87.1883 19.381 85.6094 17.6469 83.3835 17.6469C81.1317 17.6469 79.527 19.381 79.527 21.4516ZM96.6389 8.58787V28H93.4554V8.58787H96.6389ZM115.547 14.6445C118.342 14.6445 119.817 16.7668 119.817 19.7693V28H116.634V20.8563C116.634 18.941 115.831 17.6469 114.304 17.6469C112.415 17.6469 111.276 19.6657 111.198 22.3575V28H108.015V20.8563C108.015 18.941 107.212 17.6469 105.685 17.6469C103.796 17.6469 102.657 19.6657 102.554 22.3575V28H99.37V14.9033H102.372L102.528 16.741C103.667 15.5245 105.142 14.6445 106.902 14.6445C108.817 14.6445 110.111 15.628 110.733 17.2069C111.949 15.7574 113.554 14.6445 115.547 14.6445ZM134.937 21.6069V22.4352H125.024C125.102 24.0399 126.318 25.4376 128.622 25.4376C130.278 25.4376 131.34 24.5576 131.857 23.6517L134.653 23.9623C134.264 25.7482 132.22 28.2588 128.596 28.2588C124.558 28.2588 121.841 25.2047 121.841 21.374C121.841 17.7245 124.429 14.6445 128.389 14.6445C132.427 14.6445 134.937 17.8539 134.937 21.6069ZM128.389 17.4657C126.448 17.4657 125.102 18.7339 125.024 20.2351H131.754C131.65 18.7857 130.382 17.4657 128.389 17.4657Z" fill="#111927"/>
</g>
<defs>
<linearGradient id="paint0_linear_342_27778" x1="4" y1="17" x2="22.7146" y2="17.2416" gradientUnits="userSpaceOnUse">
<stop offset="0.450283" stop-color="#B540F6"/>
<stop offset="0.750161" stop-color="#F18F8C"/>
<stop offset="0.832166" stop-color="#FB9D79"/>
</linearGradient>
<clipPath id="clip0_342_27778">
<rect width="138" height="38" fill="white"/>
</clipPath>
</defs>
</svg>