<svg xmlns="http://www.w3.org/2000/svg" width="133" height="35" viewBox="0 0 133 35" fill="none">
<g clip-path="url(#clip0_308_4205)">
<circle cx="3.61448" cy="4.12962" r="3.61448" fill="#111927"/>
<circle cx="26.3855" cy="4.12962" r="3.61448" fill="#111927"/>
<path d="M5.9639 10.4546H1.08435V33.4065H6.68679V21.1173C8.13258 22.9968 11.5061 23.8282 13.0121 24.0089V18.7679C9.10849 18.4787 6.68679 13.1052 5.9639 10.4546Z" fill="#111927"/>
<path d="M24.0362 10.4546H28.9158V33.4065H23.3133V21.1173C21.8675 22.9968 18.494 23.8282 16.988 24.0089V18.7679C20.8916 18.4787 23.3133 13.1052 24.0362 10.4546Z" fill="#111927"/>
<path d="M46.2049 10.6232C51.4332 10.6232 55.0568 14.6609 55.0568 19.8116C55.0568 24.9623 51.4332 29 46.2049 29H39.8894V10.6232H46.2049ZM46.2049 25.9976C49.3884 25.9976 51.8732 23.7975 51.8732 19.8116C51.8732 15.8256 49.3884 13.6256 46.2049 13.6256H43.073V25.9976H46.2049ZM69.5777 22.6069V23.4352H59.6645C59.7422 25.0399 60.9587 26.4376 63.2623 26.4376C64.9188 26.4376 65.98 25.5576 66.4976 24.6517L69.293 24.9623C68.9047 26.7482 66.86 29.2588 63.2364 29.2588C59.1987 29.2588 56.481 26.2047 56.481 22.374C56.481 18.7245 59.0692 15.6445 63.0293 15.6445C67.067 15.6445 69.5777 18.8539 69.5777 22.6069ZM63.0293 18.4657C61.0881 18.4657 59.7422 19.7339 59.6645 21.2351H66.3941C66.2905 19.7857 65.0223 18.4657 63.0293 18.4657ZM71.3434 22.4516C71.3434 18.6986 74.0869 15.6445 77.84 15.6445C80.0918 15.6445 81.8518 16.8351 82.5247 18.3363L82.7059 15.9033H85.7342V29H82.7059L82.5247 26.567C81.8518 28.0682 80.0918 29.2588 77.84 29.2588C74.0869 29.2588 71.3434 26.2047 71.3434 22.4516ZM74.527 22.4516C74.527 24.5223 76.1317 26.2564 78.3835 26.2564C80.6094 26.2564 82.1883 24.5223 82.1883 22.4516C82.1883 20.381 80.6094 18.6469 78.3835 18.6469C76.1317 18.6469 74.527 20.381 74.527 22.4516ZM91.6389 9.58787V29H88.4554V9.58787H91.6389Z" fill="#111927"/>
<path d="M111.709 15.6445C114.505 15.6445 115.98 17.7668 115.98 20.7693V29H112.797V21.8563C112.797 19.941 111.994 18.6469 110.467 18.6469C108.578 18.6469 107.439 20.6657 107.361 23.3575V29H104.178V21.8563C104.178 19.941 103.375 18.6469 101.848 18.6469C99.9587 18.6469 98.8198 20.6657 98.7163 23.3575V29H95.5327V15.9033H98.5351L98.6904 17.741C99.8292 16.5245 101.305 15.6445 103.065 15.6445C104.98 15.6445 106.274 16.628 106.895 18.2069C108.112 16.7574 109.716 15.6445 111.709 15.6445ZM131.1 22.6069V23.4352H121.187C121.264 25.0399 122.481 26.4376 124.785 26.4376C126.441 26.4376 127.502 25.5576 128.02 24.6517L130.815 24.9623C130.427 26.7482 128.382 29.2588 124.759 29.2588C120.721 29.2588 118.003 26.2047 118.003 22.374C118.003 18.7245 120.592 15.6445 124.552 15.6445C128.589 15.6445 131.1 18.8539 131.1 22.6069ZM124.552 18.4657C122.61 18.4657 121.264 19.7339 121.187 21.2351H127.916C127.813 19.7857 126.545 18.4657 124.552 18.4657Z" fill="url(#paint0_linear_308_4205)"/>
</g>
<defs>
<linearGradient id="paint0_linear_308_4205" x1="38" y1="4" x2="148.963" y2="8.39063" gradientUnits="userSpaceOnUse">
<stop offset="0.450283" stop-color="#B540F6"/>
<stop offset="0.750161" stop-color="#F18F8C"/>
<stop offset="0.832166" stop-color="#FB9D79"/>
</linearGradient>
<clipPath id="clip0_308_4205">
<rect width="133" height="34.4849" fill="white" transform="translate(0 0.515137)"/>
</clipPath>
</defs>
</svg>