<svg width="18" height="16" viewBox="0 0 18 16" fill="none" xmlns="http://www.w3.org/2000/svg">
<path d="M12.9062 0.500017C12.2699 0.498317 11.6396 0.622834 11.0517 0.866361C10.4638 1.10989 9.92999 1.46759 9.48125 1.91877L9 2.40002L8.51875 1.91877C7.84134 1.24138 6.97827 0.780069 6.03869 0.59318C5.09911 0.406291 4.12521 0.502213 3.24014 0.868817C2.35507 1.23542 1.59859 1.85624 1.06635 2.65277C0.534111 3.44931 0.250019 4.38578 0.25 5.34377C0.25 10.8125 8.35859 15.2399 8.70391 15.4219C8.79492 15.4709 8.89665 15.4965 9 15.4965C9.10335 15.4965 9.20508 15.4709 9.29609 15.4219C9.64141 15.2399 17.75 10.8125 17.75 5.34377C17.7486 4.05957 17.2378 2.82838 16.3297 1.92032C15.4216 1.01225 14.1904 0.501465 12.9062 0.500017ZM9 14.1563C7.57344 13.325 1.5 9.5383 1.5 5.34377C1.4999 4.63292 1.71062 3.93801 2.1055 3.34693C2.50038 2.75586 3.06168 2.29516 3.71842 2.02312C4.37515 1.75108 5.09781 1.67991 5.79499 1.81861C6.49217 1.95732 7.13256 2.29967 7.63516 2.80236L8.11641 3.28361L7.30781 4.09377C7.19069 4.21097 7.1249 4.36987 7.1249 4.53556C7.1249 4.70125 7.19069 4.86016 7.30781 4.97736L9.22422 6.89377L7.93281 8.18439C7.81554 8.30167 7.74965 8.46073 7.74965 8.62658C7.74965 8.79243 7.81554 8.95149 7.93281 9.06877C8.05009 9.18604 8.20915 9.25193 8.375 9.25193C8.54085 9.25193 8.69991 9.18604 8.81719 9.06877L10.55 7.33517C10.6671 7.21797 10.7329 7.05907 10.7329 6.89338C10.7329 6.72769 10.6671 6.56878 10.55 6.45158L8.63359 4.53361L10.3648 2.80236C10.8674 2.29967 11.5078 1.95732 12.205 1.81861C12.9022 1.67991 13.6249 1.75108 14.2816 2.02312C14.9383 2.29516 15.4996 2.75586 15.8945 3.34693C16.2894 3.93801 16.5001 4.63292 16.5 5.34377C16.5 9.53205 10.425 13.3242 9 14.1563Z" fill="#EBEBEB"/>
</svg>
