<svg width="21" height="20" viewBox="0 0 21 20" fill="none" xmlns="http://www.w3.org/2000/svg">
<path d="M17.5833 6.06527L10.5 10.0005M10.5 10.0005L3.41664 6.06527M10.5 10.0005L10.5 17.9171M18 13.3826V6.61835C18 6.33281 18 6.19004 17.9579 6.06271C17.9207 5.95007 17.8599 5.84666 17.7795 5.75942C17.6886 5.66081 17.5638 5.59147 17.3142 5.4528L11.1475 2.02688C10.9112 1.89558 10.793 1.82993 10.6679 1.80419C10.5571 1.78141 10.4429 1.78141 10.3321 1.80419C10.207 1.82993 10.0888 1.89558 9.85248 2.02688L3.68581 5.45281C3.43621 5.59148 3.3114 5.66081 3.22053 5.75942C3.14013 5.84667 3.07929 5.95007 3.04207 6.06271C3 6.19005 3 6.33281 3 6.61835V13.3826C3 13.6681 3 13.8109 3.04207 13.9382C3.07929 14.0509 3.14013 14.1543 3.22053 14.2415C3.3114 14.3401 3.43621 14.4095 3.68581 14.5481L9.85248 17.9741C10.0888 18.1054 10.207 18.171 10.3321 18.1968C10.4429 18.2195 10.5571 18.2195 10.6679 18.1968C10.793 18.171 10.9112 18.1054 11.1475 17.9741L17.3142 14.5481C17.5638 14.4095 17.6886 14.3401 17.7795 14.2415C17.8599 14.1543 17.9207 14.0509 17.9579 13.9382C18 13.8109 18 13.6681 18 13.3826Z" stroke="white" stroke-width="2" stroke-linecap="round" stroke-linejoin="round"/>
</svg>
