<svg width="20" height="20" viewBox="0 0 20 20" fill="none" xmlns="http://www.w3.org/2000/svg">
<g clip-path="url(#clip0_669_3002)">
<path d="M5.00033 4.99935L6.66699 3.33268M6.66699 3.33268L5.00033 1.66602M6.66699 3.33268H5.00033C3.15938 3.33268 1.66699 4.82507 1.66699 6.66602M15.0003 14.9993L13.3337 16.666M13.3337 16.666L15.0003 18.3327M13.3337 16.666H15.0003C16.8413 16.666 18.3337 15.1736 18.3337 13.3327M11.1813 11.1803C11.8332 11.4917 12.5631 11.666 13.3337 11.666C16.0951 11.666 18.3337 9.42744 18.3337 6.66602C18.3337 3.90459 16.0951 1.66602 13.3337 1.66602C10.5722 1.66602 8.33366 3.90459 8.33366 6.66602C8.33366 7.43661 8.50798 8.16649 8.81935 8.81837M11.667 13.3327C11.667 16.0941 9.42842 18.3327 6.66699 18.3327C3.90557 18.3327 1.66699 16.0941 1.66699 13.3327C1.66699 10.5713 3.90557 8.33268 6.66699 8.33268C9.42842 8.33268 11.667 10.5713 11.667 13.3327Z" stroke="black" stroke-width="1.5" stroke-linecap="round" stroke-linejoin="round"/>
</g>
<defs>
<clipPath id="clip0_669_3002">
<rect width="20" height="20" fill="white"/>
</clipPath>
</defs>
</svg>
