<svg width="22" height="22" viewBox="0 0 22 22" fill="none" xmlns="http://www.w3.org/2000/svg">
<path d="M18.1108 18.1182C20.1646 17.9948 21.3483 16.5668 21.3779 14.9265C21.431 12.0963 21.4445 9.26374 21.3779 6.43484C21.331 4.58347 19.7586 3.16902 18.1158 3.3159C18.1268 2.45686 17.7988 1.62809 17.203 1.00917C16.6072 0.39025 15.7915 0.0310293 14.9327 0.00934591C12.0852 0.00934591 9.23782 -0.017808 6.39165 0.0204537C4.62173 0.0439044 3.26406 1.53981 3.29615 3.31713C1.78543 3.1394 -0.0128719 4.57236 0.00440763 6.53605C0.0278584 9.23782 -0.0128719 11.9408 0.00440763 14.6414C0.0204529 16.7087 1.21397 17.9442 3.29244 18.1195C3.31342 19.9807 4.7143 21.3594 6.64467 21.3717C9.27979 21.389 11.9161 21.3446 14.55 21.389C16.5446 21.4223 18.1182 19.9881 18.1108 18.1182Z" fill="#ECECEC"/>
<rect x="3" y="3" width="15" height="15" rx="0.245333" fill="#2C2C2C"/>
</svg>
