<svg width="62" height="62" viewBox="0 0 62 62" fill="none" xmlns="http://www.w3.org/2000/svg">
<path d="M55.2025 38.75C56.6738 38.75 57.8898 39.8435 58.082 41.2618L58.1087 41.6563V47.4591C58.1087 53.1197 53.6947 57.7507 48.1186 58.0948L47.4703 58.1153L41.6613 58.125C40.0563 58.1277 38.7527 56.8288 38.75 55.2238C38.7475 53.7525 39.8389 52.5345 41.2571 52.3396L41.6512 52.3125L47.4606 52.3028C49.9654 52.2986 52.0238 50.3932 52.271 47.9535L52.2962 47.4591V41.6563C52.2962 40.0512 53.5975 38.75 55.2025 38.75ZM6.78125 38.75C8.38631 38.75 9.6875 40.0512 9.6875 41.6563V47.4591C9.6875 50.1309 11.8511 52.2982 14.5231 52.3028L20.3322 52.3125C21.9373 52.3152 23.2363 53.6188 23.2336 55.2238C23.2309 56.8288 21.9275 58.1277 20.3224 58.125L14.5132 58.1153C8.63501 58.1052 3.875 53.3371 3.875 47.4591V41.6563C3.875 40.0512 5.17619 38.75 6.78125 38.75ZM31 23.25C35.2802 23.25 38.75 26.7198 38.75 31C38.75 35.2802 35.2802 38.75 31 38.75C26.7198 38.75 23.25 35.2802 23.25 31C23.25 26.7198 26.7198 23.25 31 23.25ZM41.6613 3.875L47.4703 3.88485C53.3487 3.89477 58.1087 8.6628 58.1087 14.5411V20.3438C58.1087 21.9489 56.8075 23.25 55.2025 23.25C53.5975 23.25 52.2962 21.9489 52.2962 20.3438V14.5411C52.2962 11.8691 50.1324 9.70184 47.4606 9.69731L41.6512 9.6875C40.0462 9.68479 38.7473 8.38144 38.75 6.77633C38.7527 5.17127 40.0563 3.8723 41.6613 3.875ZM20.3388 3.875C21.9439 3.8723 23.2473 5.17127 23.25 6.77633C23.2527 8.38144 21.9537 9.68479 20.3487 9.6875L14.5395 9.69731C11.8675 9.70184 9.70393 11.8691 9.70393 14.5411V20.3438C9.70393 21.9489 8.40274 23.25 6.79768 23.25C5.19258 23.25 3.89143 21.9489 3.89143 20.3438V14.5411C3.89143 8.6628 8.6514 3.89477 14.5297 3.88485L20.3388 3.875Z" fill="#A7A7A7"/>
</svg>
