<svg width="19" height="19" viewBox="0 0 19 19" fill="none" xmlns="http://www.w3.org/2000/svg">
<path d="M18.4007 9.39008V17.5682C18.4007 17.9477 18.2499 18.3118 17.9815 18.5802C17.7131 18.8485 17.3491 18.9993 16.9695 18.9993H1.43117C1.0516 18.9993 0.687574 18.8485 0.419179 18.5802C0.150783 18.3118 0 17.9477 0 17.5682V2.0298C0 1.65023 0.150783 1.28621 0.419179 1.01781C0.687574 0.749416 1.0516 0.598633 1.43117 0.598633H9.60925C9.77193 0.598633 9.92794 0.663254 10.043 0.778281C10.158 0.893307 10.2226 1.04932 10.2226 1.21199C10.2226 1.37466 10.158 1.53067 10.043 1.6457C9.92794 1.76073 9.77193 1.82535 9.60925 1.82535H1.43117C1.37694 1.82535 1.32494 1.84689 1.2866 1.88523C1.24825 1.92357 1.22671 1.97557 1.22671 2.0298V17.5682C1.22671 17.6224 1.24825 17.6744 1.2866 17.7127C1.32494 17.7511 1.37694 17.7726 1.43117 17.7726H16.9695C17.0238 17.7726 17.0758 17.7511 17.1141 17.7127C17.1524 17.6744 17.174 17.6224 17.174 17.5682V9.39008C17.174 9.22741 17.2386 9.0714 17.3536 8.95637C17.4687 8.84134 17.6247 8.77672 17.7873 8.77672C17.95 8.77672 18.106 8.84134 18.2211 8.95637C18.3361 9.0714 18.4007 9.22741 18.4007 9.39008Z" fill="#ECECEC"/>
<path d="M18.8028 3.9603C16.9384 3.9603 15.0386 2.06065 15.0386 0.196147C15.0386 0.144125 15.018 0.0942346 14.9812 0.05745C14.9444 0.0206654 14.8945 0 14.8425 0C14.7905 0 14.7406 0.0206654 14.7038 0.05745C14.667 0.0942346 14.6463 0.144125 14.6463 0.196147C14.6463 2.06065 12.7465 3.9603 10.8819 3.9603C10.8298 3.9603 10.7799 3.98098 10.743 4.0178C10.7062 4.05461 10.6855 4.10454 10.6855 4.15661C10.6855 4.20867 10.7062 4.2586 10.743 4.29542C10.7799 4.33223 10.8298 4.35292 10.8819 4.35292C12.7465 4.35292 14.6463 6.25256 14.6463 8.11691C14.6463 8.16893 14.667 8.21882 14.7038 8.25561C14.7406 8.29239 14.7905 8.31306 14.8425 8.31306C14.8945 8.31306 14.9444 8.29239 14.9812 8.25561C15.018 8.21882 15.0386 8.16893 15.0386 8.11691C15.0386 6.25256 16.9384 4.35292 18.8028 4.35292C18.8548 4.35292 18.9048 4.33223 18.9416 4.29542C18.9784 4.2586 18.9991 4.20867 18.9991 4.15661C18.9991 4.10454 18.9784 4.05461 18.9416 4.0178C18.9048 3.98098 18.8548 3.9603 18.8028 3.9603Z" fill="#ECECEC"/>
</svg>
