<svg width="21" height="21" viewBox="0 0 21 21" fill="none" xmlns="http://www.w3.org/2000/svg">
<path d="M17.7188 3.28125H3.28125C2.93315 3.28125 2.59931 3.41953 2.35317 3.66567C2.10703 3.91181 1.96875 4.24565 1.96875 4.59375V16.4062C1.96875 16.7543 2.10703 17.0882 2.35317 17.3343C2.59931 17.5805 2.93315 17.7188 3.28125 17.7188H17.7188C18.0668 17.7188 18.4007 17.5805 18.6468 17.3343C18.893 17.0882 19.0312 16.7543 19.0312 16.4062V4.59375C19.0312 4.24565 18.893 3.91181 18.6468 3.66567C18.4007 3.41953 18.0668 3.28125 17.7188 3.28125ZM3.28125 4.59375H6.5625V16.4062H3.28125V4.59375ZM17.7188 16.4062H7.875V4.59375H17.7188V16.4062Z" fill="#343330"/>
</svg>
