<svg width="16" height="16" viewBox="0 0 16 16" fill="none" xmlns="http://www.w3.org/2000/svg">
<path d="M13.3537 11.3538L11.3537 13.3538C11.2598 13.4476 11.1326 13.5003 10.9999 13.5003C10.8672 13.5003 10.74 13.4476 10.6462 13.3538C10.5523 13.26 10.4996 13.1327 10.4996 13C10.4996 12.8674 10.5523 12.7401 10.6462 12.6463L11.793 11.5H2.99991C2.8673 11.5 2.74012 11.4474 2.64635 11.3536C2.55258 11.2598 2.49991 11.1326 2.49991 11C2.49991 10.8674 2.55258 10.7402 2.64635 10.6465C2.74012 10.5527 2.8673 10.5 2.99991 10.5H11.793L10.6462 9.35378C10.5523 9.25996 10.4996 9.13272 10.4996 9.00003C10.4996 8.86735 10.5523 8.7401 10.6462 8.64628C10.74 8.55246 10.8672 8.49976 10.9999 8.49976C11.1326 8.49976 11.2598 8.55246 11.3537 8.64628L13.3537 10.6463C13.4001 10.6927 13.437 10.7479 13.4622 10.8086C13.4873 10.8693 13.5003 10.9343 13.5003 11C13.5003 11.0657 13.4873 11.1308 13.4622 11.1915C13.437 11.2522 13.4001 11.3073 13.3537 11.3538ZM4.64615 7.35378C4.73998 7.4476 4.86722 7.50031 4.99991 7.50031C5.13259 7.50031 5.25984 7.4476 5.35366 7.35378C5.44748 7.25996 5.50018 7.13272 5.50018 7.00003C5.50018 6.86735 5.44748 6.7401 5.35366 6.64628L4.20678 5.50003H12.9999C13.1325 5.50003 13.2597 5.44736 13.3535 5.35359C13.4472 5.25982 13.4999 5.13264 13.4999 5.00003C13.4999 4.86743 13.4472 4.74025 13.3535 4.64648C13.2597 4.55271 13.1325 4.50003 12.9999 4.50003H4.20678L5.35366 3.35378C5.44748 3.25996 5.50018 3.13272 5.50018 3.00003C5.50018 2.86735 5.44748 2.7401 5.35365 2.64628C5.25983 2.55246 5.13259 2.49976 4.99991 2.49976C4.86722 2.49976 4.73998 2.55246 4.64615 2.64628L2.64616 4.64628C2.59967 4.69272 2.56279 4.74786 2.53763 4.80856C2.51246 4.86926 2.49951 4.93433 2.49951 5.00003C2.49951 5.06574 2.51246 5.13081 2.53763 5.1915C2.56279 5.2522 2.59967 5.30735 2.64616 5.35378L4.64615 7.35378Z" fill="#343330"/>
</svg>
