<svg width="24" height="25" viewBox="0 0 24 25" fill="none" xmlns="http://www.w3.org/2000/svg">
<path fill-rule="evenodd" clip-rule="evenodd" d="M0 12.5C0 5.8726 5.3726 0.5 12 0.5C18.6274 0.5 24 5.8726 24 12.5C24 19.1274 18.6274 24.5 12 24.5C5.3726 24.5 0 19.1274 0 12.5ZM12 2.13636C6.27635 2.13636 1.63636 6.77635 1.63636 12.5C1.63636 18.2236 6.27635 22.8636 12 22.8636C17.7236 22.8636 22.3636 18.2236 22.3636 12.5C22.3636 6.77635 17.7236 2.13636 12 2.13636ZM3.95458 12.5C3.95458 8.05664 7.55666 4.45455 12.0001 4.45455C16.4434 4.45455 20.0454 8.05664 20.0454 12.5C20.0454 16.9434 16.4434 20.5454 12.0001 20.5454C7.55666 20.5454 3.95458 16.9434 3.95458 12.5ZM12.0001 6C8.41019 6 5.50004 8.91017 5.50004 12.5C5.50004 16.0898 8.41021 19 12.0001 19C15.5899 19 18.5 16.0898 18.5 12.5C18.5 8.91017 15.5899 6 12.0001 6ZM12.0001 8.4091C9.7407 8.4091 7.90913 10.2407 7.90913 12.5C7.90913 14.7594 9.7407 16.5909 12.0001 16.5909C14.2594 16.5909 16.091 14.7594 16.091 12.5C16.091 10.2407 14.2594 8.4091 12.0001 8.4091ZM9.36368 12.5C9.36368 11.044 10.544 9.86365 12.0001 9.86365C13.4561 9.86365 14.6364 11.044 14.6364 12.5C14.6364 13.956 13.4561 15.1364 12.0001 15.1364C10.544 15.1364 9.36368 13.956 9.36368 12.5Z" fill="white"/>
</svg>
