<svg width="24" height="17" viewBox="0 0 24 17" fill="none" xmlns="http://www.w3.org/2000/svg">
<path d="M11.2275 16.4321C11.1869 16.5944 11.0933 16.7384 10.9615 16.8413C10.8297 16.9443 10.6672 17.0002 10.5 17.0002C10.4368 17.0005 10.3738 16.993 10.3125 16.9777L7.3125 16.2277C7.22898 16.2067 7.14969 16.1715 7.07812 16.1237L4.82812 14.6237C4.66265 14.5133 4.54781 14.3417 4.50887 14.1466C4.46993 13.9515 4.51007 13.749 4.62047 13.5835C4.73086 13.418 4.90247 13.3032 5.09754 13.2643C5.2926 13.2253 5.49515 13.2655 5.66062 13.3758L7.80187 14.8037L10.6762 15.5227C10.7723 15.546 10.8628 15.588 10.9425 15.6464C11.0223 15.7048 11.0897 15.7783 11.1409 15.8628C11.1921 15.9473 11.2261 16.0411 11.241 16.1388C11.2559 16.2365 11.2513 16.3362 11.2275 16.4321ZM23.6672 7.38898C23.6056 7.57589 23.5077 7.74877 23.379 7.89761C23.2502 8.04646 23.0933 8.16832 22.9172 8.25616L20.6972 9.36616L15.5334 14.5308C15.4418 14.6224 15.328 14.6887 15.2031 14.7232C15.0783 14.7577 14.9466 14.7592 14.8209 14.7277L8.82093 13.2277C8.72969 13.2048 8.64353 13.1651 8.56687 13.1105L3.36187 9.39429L1.08562 8.25616C0.729875 8.07832 0.459318 7.76648 0.333441 7.38921C0.207565 7.01193 0.236676 6.60011 0.414373 6.24429L2.74406 1.58585C2.9219 1.2301 3.23374 0.959545 3.61102 0.833669C3.98829 0.707793 4.40012 0.736904 4.75594 0.9146L6.82406 1.94585L11.7928 0.526475C11.9276 0.48792 12.0705 0.48792 12.2053 0.526475L17.1741 1.94585L19.2422 0.9146C19.598 0.736904 20.0098 0.707793 20.3871 0.833669C20.7644 0.959545 21.0762 1.2301 21.2541 1.58585L23.5837 6.24429C23.6726 6.42011 23.7257 6.6118 23.7401 6.80828C23.7544 7.00476 23.7296 7.20213 23.6672 7.38898ZM19.3378 8.6021L16.7869 3.50023H13.8037L9.75 7.43773C10.9369 8.19616 12.7978 8.40523 14.4675 6.72241C14.5979 6.59097 14.7723 6.51241 14.9572 6.50186C15.142 6.4913 15.3242 6.54949 15.4687 6.66523L18.6947 9.24991L19.3378 8.6021ZM1.75594 6.9146L3.41437 7.74429L5.74406 3.08585L4.08562 2.25616L1.75594 6.9146ZM17.625 10.3121L15.0272 8.23179C13.1953 9.73179 10.8694 9.9296 8.94187 8.70054C8.75227 8.57993 8.59219 8.41826 8.47345 8.22748C8.35472 8.0367 8.28036 7.82168 8.25588 7.5983C8.2314 7.37493 8.25742 7.14891 8.33202 6.93694C8.40662 6.72497 8.52789 6.53247 8.68687 6.37366C8.68913 6.37093 8.69164 6.36842 8.69437 6.36616L12.9 2.2871L12 2.03023L7.27312 3.38116L4.70718 8.5121L9.31968 11.8074L14.7703 13.1696L17.625 10.3121ZM22.2412 6.9146L19.9144 2.25616L18.2559 3.08585L20.5856 7.74429L22.2412 6.9146Z" fill="#616161"/>
</svg>
