<svg width="55" height="55" viewBox="0 0 55 55" fill="none" xmlns="http://www.w3.org/2000/svg">
<path d="M20 0H5C3.67392 0 2.40215 0.526784 1.46447 1.46447C0.526784 2.40215 0 3.67392 0 5V20C0 21.3261 0.526784 22.5979 1.46447 23.5355C2.40215 24.4732 3.67392 25 5 25H20C21.3261 25 22.5979 24.4732 23.5355 23.5355C24.4732 22.5979 25 21.3261 25 20V5C25 3.67392 24.4732 2.40215 23.5355 1.46447C22.5979 0.526784 21.3261 0 20 0ZM20 20H5V5H20V20ZM50 0H35C33.6739 0 32.4021 0.526784 31.4645 1.46447C30.5268 2.40215 30 3.67392 30 5V20C30 21.3261 30.5268 22.5979 31.4645 23.5355C32.4021 24.4732 33.6739 25 35 25H50C51.3261 25 52.5979 24.4732 53.5355 23.5355C54.4732 22.5979 55 21.3261 55 20V5C55 3.67392 54.4732 2.40215 53.5355 1.46447C52.5979 0.526784 51.3261 0 50 0ZM50 20H35V5H50V20ZM20 30H5C3.67392 30 2.40215 30.5268 1.46447 31.4645C0.526784 32.4021 0 33.6739 0 35V50C0 51.3261 0.526784 52.5979 1.46447 53.5355C2.40215 54.4732 3.67392 55 5 55H20C21.3261 55 22.5979 54.4732 23.5355 53.5355C24.4732 52.5979 25 51.3261 25 50V35C25 33.6739 24.4732 32.4021 23.5355 31.4645C22.5979 30.5268 21.3261 30 20 30ZM20 50H5V35H20V50ZM50 30H35C33.6739 30 32.4021 30.5268 31.4645 31.4645C30.5268 32.4021 30 33.6739 30 35V50C30 51.3261 30.5268 52.5979 31.4645 53.5355C32.4021 54.4732 33.6739 55 35 55H50C51.3261 55 52.5979 54.4732 53.5355 53.5355C54.4732 52.5979 55 51.3261 55 50V35C55 33.6739 54.4732 32.4021 53.5355 31.4645C52.5979 30.5268 51.3261 30 50 30ZM50 50H35V35H50V50Z" fill="#A7A7A7"/>
</svg>
