<svg width="18" height="18" viewBox="0 0 18 18" fill="none" xmlns="http://www.w3.org/2000/svg">
<rect width="18" height="18" rx="9" fill="#5C84FE" fill-opacity="0.18"/>
<g opacity="0.9" clip-path="url(#clip0_514_2040)">
<path fill-rule="evenodd" clip-rule="evenodd" d="M3.16111 4.30828C2.875 4.86979 2.875 5.60486 2.875 7.075V10.925C2.875 12.3952 2.875 13.1302 3.16111 13.6918C3.41277 14.1857 3.81435 14.5872 4.30828 14.8389C4.86979 15.125 5.60486 15.125 7.075 15.125H10.925C12.3952 15.125 13.1302 15.125 13.6918 14.8389C14.1857 14.5872 14.5872 14.1857 14.8389 13.6918C15.125 13.1302 15.125 12.3952 15.125 10.925V7.075C15.125 5.60486 15.125 4.86979 14.8389 4.30828C14.5872 3.81435 14.1857 3.41277 13.6918 3.16111C13.1302 2.875 12.3952 2.875 10.925 2.875H7.075C5.60486 2.875 4.86979 2.875 4.30828 3.16111C3.81435 3.41277 3.41277 3.81435 3.16111 4.30828ZM5.63255 8.22695C5.32641 8.03293 4.92096 8.12381 4.72693 8.42994C4.53291 8.73606 4.62378 9.14152 4.92991 9.33555L7.16161 10.75L4.92991 12.1644C4.62378 12.3585 4.53291 12.7639 4.72693 13.0701C4.92096 13.3762 5.32641 13.4671 5.63255 13.2731L8.73879 11.3043C8.92866 11.184 9.04372 10.9748 9.04372 10.75C9.04372 10.5252 8.92866 10.3161 8.73879 10.1957L5.63255 8.22695Z" fill="#5D85FF"/>
</g>
<defs>
<clipPath id="clip0_514_2040">
<rect width="14" height="14" fill="white" transform="translate(2 2)"/>
</clipPath>
</defs>
</svg>
