<svg width="19" height="18" viewBox="0 0 19 18" fill="none" xmlns="http://www.w3.org/2000/svg">
<g clip-path="url(#clip0_2005_47373)">
<path d="M12.2821 15.588V14.124C12.2821 13.3474 11.9736 12.6026 11.4245 12.0534C10.8753 11.5043 10.1306 11.1958 9.35396 11.1958H4.22967C3.45308 11.1958 2.70829 11.5043 2.15915 12.0534C1.61002 12.6026 1.30151 13.3474 1.30151 14.124V15.588" stroke="white" stroke-width="1.7569" stroke-linecap="round" stroke-linejoin="round"/>
<path d="M6.7912 8.26794C8.40838 8.26794 9.71936 6.95696 9.71936 5.33978C9.71936 3.7226 8.40838 2.41162 6.7912 2.41162C5.17402 2.41162 3.86304 3.7226 3.86304 5.33978C3.86304 6.95696 5.17402 8.26794 6.7912 8.26794Z" stroke="white" stroke-width="1.7569" stroke-linecap="round" stroke-linejoin="round"/>
<path d="M15.209 6.07178V10.464" stroke="white" stroke-width="1.7569" stroke-linecap="round" stroke-linejoin="round"/>
<path d="M17.4052 8.26758H13.0129" stroke="white" stroke-width="1.7569" stroke-linecap="round" stroke-linejoin="round"/>
</g>
<defs>
<clipPath id="clip0_2005_47373">
<rect width="17.569" height="17.569" fill="white" transform="translate(0.568848 0.215332)"/>
</clipPath>
</defs>
</svg>
