<svg width="14" height="14" viewBox="0 0 14 14" fill="none" xmlns="http://www.w3.org/2000/svg">
<path d="M1.99998 6.10352e-05C1.46956 6.10352e-05 0.960852 0.210773 0.585782 0.585843C0.210712 0.960913 0 1.46962 0 2.00005V12C0 12.5304 0.210712 13.0391 0.585782 13.4142C0.960852 13.7892 1.46956 14 1.99998 14H11.9999C12.5303 14 13.039 13.7892 13.4141 13.4142C13.7892 13.0391 13.9999 12.5304 13.9999 12V2.00005C13.9999 1.46962 13.7892 0.960913 13.4141 0.585843C13.039 0.210773 12.5303 6.10352e-05 11.9999 6.10352e-05H1.99998ZM5.91395 3.00004H7.65194L7.49994 8.60199H6.06995L5.91395 3.00004ZM7.72294 10.164C7.71983 10.4118 7.62001 10.6486 7.44477 10.8238C7.26953 10.999 7.03275 11.0989 6.78495 11.102C6.65979 11.1061 6.53508 11.085 6.41825 11.0399C6.30141 10.9948 6.19484 10.9267 6.10485 10.8396C6.01487 10.7525 5.94331 10.6483 5.89445 10.533C5.84558 10.4177 5.8204 10.2937 5.8204 10.1685C5.8204 10.0433 5.84558 9.91931 5.89445 9.80401C5.94331 9.68871 6.01487 9.58442 6.10485 9.49733C6.19484 9.41025 6.30141 9.34214 6.41825 9.29707C6.53508 9.25201 6.65979 9.23089 6.78495 9.23499C7.28494 9.23499 7.71894 9.65199 7.72294 10.164Z" fill="#F2994A"/>
</svg>
