<svg width="18" height="18" viewBox="0 0 18 18" fill="none" xmlns="http://www.w3.org/2000/svg">
<path d="M3.37499 8.4375H14.625C14.7742 8.4375 14.9172 8.37824 15.0227 8.27275C15.1282 8.16726 15.1875 8.02418 15.1875 7.875V6.1875C15.1875 6.11361 15.173 6.04043 15.1448 5.97215C15.1166 5.90386 15.0752 5.84181 15.023 5.78953L11.0855 1.85203C11.0332 1.79981 10.9711 1.7584 10.9028 1.73017C10.8346 1.70194 10.7614 1.68744 10.6875 1.6875H3.93749C3.63912 1.6875 3.35297 1.80603 3.142 2.017C2.93102 2.22798 2.81249 2.51413 2.81249 2.8125V7.875C2.81249 8.02418 2.87175 8.16726 2.97724 8.27275C3.08273 8.37824 3.22581 8.4375 3.37499 8.4375ZM10.6875 3.09375L13.7812 6.1875H10.6875V3.09375ZM10.9687 14.625C10.9687 14.7742 10.9095 14.9173 10.804 15.0227C10.6985 15.1282 10.5554 15.1875 10.4062 15.1875H8.43749C8.28831 15.1875 8.14523 15.1282 8.03974 15.0227C7.93425 14.9173 7.87499 14.7742 7.87499 14.625V10.6875C7.87499 10.5383 7.93425 10.3952 8.03974 10.2898C8.14523 10.1843 8.28831 10.125 8.43749 10.125C8.58667 10.125 8.72975 10.1843 8.83524 10.2898C8.94073 10.3952 8.99999 10.5383 8.99999 10.6875V14.0625H10.4062C10.5554 14.0625 10.6985 14.1218 10.804 14.2273C10.9095 14.3327 10.9687 14.4758 10.9687 14.625ZM6.64523 11.0145L5.47241 12.6562L6.64523 14.298C6.72415 14.4195 6.7532 14.5667 6.72631 14.709C6.69942 14.8513 6.61866 14.9778 6.50087 15.0621C6.38307 15.1463 6.2373 15.1819 6.09392 15.1614C5.95055 15.1409 5.82061 15.0659 5.73116 14.952L4.78124 13.6237L3.83273 14.952C3.79132 15.0157 3.73743 15.0703 3.67432 15.1126C3.61121 15.1549 3.54018 15.184 3.46552 15.1981C3.39086 15.2122 3.31411 15.2111 3.23992 15.1947C3.16572 15.1783 3.0956 15.1471 3.03381 15.1029C2.97201 15.0587 2.91981 15.0024 2.88036 14.9375C2.8409 14.8726 2.81502 14.8003 2.80426 14.7251C2.7935 14.6499 2.79808 14.5732 2.81775 14.4999C2.83741 14.4265 2.87174 14.3578 2.91866 14.298L4.09007 12.6562L2.91726 11.0145C2.87033 10.9547 2.836 10.886 2.81634 10.8126C2.79668 10.7393 2.79209 10.6626 2.80285 10.5874C2.81361 10.5122 2.8395 10.4399 2.87895 10.375C2.9184 10.3101 2.9706 10.2538 3.0324 10.2096C3.0942 10.1654 3.16431 10.1342 3.23851 10.1178C3.31271 10.1014 3.38945 10.1003 3.46412 10.1144C3.53878 10.1285 3.60981 10.1576 3.67292 10.1999C3.73603 10.2422 3.78991 10.2968 3.83132 10.3605L4.78124 11.6888L5.72976 10.3605C5.8192 10.2466 5.94914 10.1716 6.09252 10.1511C6.2359 10.1306 6.38166 10.1662 6.49946 10.2504C6.61726 10.3347 6.69801 10.4612 6.7249 10.6035C6.75179 10.7458 6.72275 10.893 6.64382 11.0145H6.64523ZM15.1727 13.803C15.1509 14.0181 15.0817 14.2257 14.9701 14.4109C14.8585 14.5961 14.7073 14.7542 14.5273 14.8739C14.1623 15.1172 13.7067 15.1875 13.2975 15.1875C12.937 15.186 12.5781 15.1387 12.2294 15.0469C12.0858 15.0067 11.9639 14.9111 11.8907 14.7811C11.8176 14.651 11.799 14.4973 11.8392 14.3536C11.8794 14.2099 11.975 14.0881 12.105 14.0149C12.235 13.9417 12.3888 13.9232 12.5325 13.9634C12.8405 14.0484 13.583 14.1539 13.9064 13.9388C13.969 13.8966 14.0358 13.8319 14.0576 13.6624C14.0815 13.4747 14.0069 13.3741 13.159 13.1287C12.5016 12.9389 11.4012 12.6204 11.5418 11.5031C11.5635 11.2927 11.6311 11.0895 11.7398 10.908C11.8486 10.7265 11.9958 10.5711 12.1711 10.4527C13.0036 9.89016 14.3311 10.2199 14.4794 10.2586C14.6238 10.2965 14.7471 10.3903 14.8224 10.5192C14.8976 10.6481 14.9185 10.8016 14.8806 10.9459C14.8426 11.0902 14.7489 11.2136 14.62 11.2888C14.4911 11.364 14.3376 11.385 14.1933 11.347C13.8783 11.2648 13.1231 11.167 12.7997 11.3864C12.7573 11.415 12.7224 11.4534 12.6979 11.4983C12.6734 11.5432 12.6601 11.5933 12.6591 11.6445C12.6513 11.7077 12.6499 11.7204 12.7378 11.778C12.9002 11.8828 13.1913 11.9665 13.4726 12.048C14.1666 12.2463 15.3281 12.5859 15.1727 13.803Z" fill="white"/>
</svg>
