<svg width="20" height="20" viewBox="0 0 20 20" fill="none" xmlns="http://www.w3.org/2000/svg">
<path d="M9.99992 1.07168C7.0508 1.07168 4.43969 2.49733 2.81463 4.69712L5.57233 9.47375C5.70057 8.39885 6.21477 7.40715 7.01962 6.68315C7.82447 5.95915 8.86493 5.55238 9.94738 5.53823C9.96478 5.53632 9.98245 5.5355 10.0001 5.53563H17.7333C16.1907 2.86643 13.3086 1.07168 9.99992 1.07168ZM2.26675 5.53508C1.50767 6.84836 1.07129 8.37226 1.07129 10.0002C1.07129 14.599 4.53598 18.3774 9.00089 18.8727L11.7543 14.1038C11.1998 14.3413 10.6031 14.4641 9.99988 14.4645C8.43052 14.4624 6.97746 13.6365 6.17275 12.2891C6.15823 12.2713 6.14507 12.2522 6.13356 12.2324L2.26675 5.53508ZM9.99992 6.42882C9.05273 6.42882 8.14433 6.80518 7.47459 7.47492C6.80486 8.14465 6.42863 9.05305 6.42863 10.0002C6.42863 10.9474 6.80489 11.8558 7.47459 12.5255C8.1443 13.1953 9.05273 13.5715 9.99992 13.5715C10.9471 13.5715 11.8555 13.1953 12.5252 12.5255C13.195 11.8558 13.5712 10.9474 13.5712 10.0002C13.5712 9.05305 13.1949 8.14465 12.5252 7.47492C11.8555 6.80518 10.9471 6.42882 9.99992 6.42882ZM12.671 6.42882C13.798 7.27035 14.4623 8.5938 14.4641 10.0002C14.4623 10.7575 14.2679 11.5019 13.8992 12.1634C13.8903 12.1873 13.8794 12.2103 13.8665 12.2323L10.0004 18.9287C14.9366 18.9284 18.9283 14.9364 18.9283 10.0001C18.9283 8.72943 18.6624 7.52219 18.1854 6.4287L12.671 6.42882Z" fill="white"/>
</svg>
